<svg id="Layer_1" data-name="Layer 1" xmlns="http://www.w3.org/2000/svg" viewBox="0 0 200 200"><defs><style>.cls-1{fill:#d35c4e;}.cls-2{fill:#4092ca;}.cls-3{fill:none;stroke:#fff;stroke-miterlimit:10;stroke-width:3px;}</style></defs><title>GB-flag</title><polygon class="cls-1" points="19.32 89 88 89 88 55.79 105 55.79 105 89 173.92 89 173.92 106 105 106 104.67 139.33 88.33 139.33 88.33 106 19.32 106 19.32 89"/><polygon class="cls-2" points="19.32 83.33 19.32 67.33 50.33 83.33 19.32 83.33"/><polygon class="cls-2" points="82.67 81.33 82.67 55.79 33 55.79 82.67 81.33"/><polygon class="cls-2" points="110 81.33 110 55.79 158.67 55.79 110 81.33"/><polygon class="cls-2" points="143 83.33 173.92 83.33 173.92 67.33 143 83.33"/><polygon class="cls-2" points="143 111.33 173.92 111.33 173.92 127 143 111.33"/><polygon class="cls-2" points="110 113.33 110 139.33 158.67 139.33 110 113.33"/><polygon class="cls-2" points="82.67 113.33 82.67 139.33 33 139.33 82.67 113.33"/><polygon class="cls-2" points="19.32 127 19.32 111.33 50.33 111.33 19.32 127"/><polygon class="cls-1" points="56.33 83.33 68.33 83.33 19.32 58 19.32 64.33 56.33 83.33"/><polygon class="cls-1" points="124 111.33 173.92 137 173.92 130.67 136.33 111.33 124 111.33"/><polygon class="cls-1" points="112.33 83.33 124 83.33 173.92 58 173.92 55.79 165.33 55.79 112.33 83.33"/><path class="cls-1" d="M68.33,111.33,19.32,137v.55a5.25,5.25,0,0,1,2.79,1.79H26l54.67-28Z"/><rect class="cls-3" x="18.31" y="54.16" width="157.61" height="85.17" rx="7.75" ry="7.75"/></svg>