<svg id="Layer_1" data-name="Layer 1" xmlns="http://www.w3.org/2000/svg" viewBox="0 0 100 100"><defs><style>.cls-1{fill:#fff;}</style></defs><title>logouticon</title><g id="_3T9vOq.tif" data-name="3T9vOq.tif"><path class="cls-1" d="M53.54,54.31c0,1.3-.06,2.52,0,3.74a2,2,0,0,0,.65,1.31c.47.38,1,0,1.38-.36,2.2-1.92,4.41-3.82,6.62-5.74l3.93-3.44A2.47,2.47,0,0,0,66,49.6L55.44,40.48a1.49,1.49,0,0,0-.64-.34c-.74-.15-1.23.32-1.24,1.2,0,1.3,0,2.59,0,4H45.3a4.75,4.75,0,0,0-.82.07,1.37,1.37,0,0,0-1.29,1.47q0,3,0,5.93a1.37,1.37,0,0,0,1.3,1.47,5.3,5.3,0,0,0,.89.07Z"/><path class="cls-1" d="M60.38,30.57a4.68,4.68,0,0,1,3.26,2.84,2.85,2.85,0,0,1,.23.94c0,2.72,0,5.45,0,8.35-1-.87-1.95-1.64-2.84-2.45-.13-.12-.12-.42-.13-.64,0-1.43,0-2.85,0-4.28,0-1.21-.54-1.75-1.73-1.75H39.05c-1.19,0-1.73.54-1.74,1.75q0,14.49,0,29c0,1.19.55,1.72,1.76,1.72h20c1.25,0,1.77-.52,1.78-1.78,0-1.43,0-2.85,0-4.28a1.27,1.27,0,0,1,.37-.8c.79-.74,1.63-1.44,2.55-2.25,0,.36.06.58.06.79,0,2.33,0,4.66,0,7A4.32,4.32,0,0,1,59.51,69H38.71a4.32,4.32,0,0,1-4.39-4.35q0-14.87,0-29.74a4.34,4.34,0,0,1,2.9-4.14l.62-.24Z"/><path class="cls-1" d="M53.54,54.31H45.38a5.3,5.3,0,0,1-.89-.07,1.37,1.37,0,0,1-1.3-1.47q0-3,0-5.93a1.37,1.37,0,0,1,1.29-1.47,4.75,4.75,0,0,1,.82-.07h8.25c0-1.37,0-2.66,0-4,0-.88.51-1.35,1.24-1.2a1.49,1.49,0,0,1,.64.34L66,49.6a2.47,2.47,0,0,1,.19.22l-3.93,3.44C60,55.17,57.79,57.07,55.6,59c-.42.37-.91.74-1.38.36a2,2,0,0,1-.65-1.31C53.49,56.84,53.54,55.61,53.54,54.31Z"/></g></svg>