<svg xmlns="http://www.w3.org/2000/svg" viewBox="0 0 100 100"><defs><style>.cls-1{fill:#727373;}.cls-2{fill:#333;opacity:0.2;}.cls-3{fill:#c2c1c0;}.cls-3,.cls-4{opacity:0.5;}.cls-4{fill:#f9f8f7;}.cls-5{fill:#f7921e;}</style></defs><title>logoflat</title><g id="Layer_2" data-name="Layer 2"><circle class="cls-1" cx="50.63" cy="45.13" r="35.13"/><circle class="cls-2" cx="51.5" cy="51.25" r="29.5"/><circle class="cls-3" cx="50.75" cy="35.75" r="24.75"/><circle class="cls-4" cx="53" cy="47.93" r="20.5"/></g><g id="Layer_3" data-name="Layer 3"><path class="cls-5" d="M35.22,13.81C39.16,11.49,43.4,9.09,48,9.35c1.6.09,3.17.52,4.76.71,2.28.27,4.65.07,6.82.83s4.1,3,3.48,5.19a3.27,3.27,0,0,1-3.93-.91c-.43-.56-.66-1.25-1.11-1.79a3.79,3.79,0,0,0-3.55-1.06,11.16,11.16,0,0,0-3.55,1.53l-1.64.94c-.54.31-1.14.71-1.22,1.33s.54,1.27,1.16,1.61a3.81,3.81,0,0,1,1.68,1.22c.39.69.31,1.77,1.06,2s1.28-.51,1.36-1.19-.14-1.39,0-2.07.78-1.38,1.42-1.1c.38.17.55.6.83.9a2.74,2.74,0,0,0,2,.65,4.37,4.37,0,0,1,2.08.35,1.26,1.26,0,0,1,.5,1.79c-.48.54-1.53.42-1.81,1.09s.55,1.27,1.22,1.6,1.35,1.21.8,1.71c-.3.27-.76.19-1.16.16-1.93-.11-3.45,1.55-4.65,3.07l-3.29,4.14a2.87,2.87,0,0,0-.87,2c.13,1,1.18,1.93.59,2.69-.57.18-.86-.63-1.17-1.15a3.43,3.43,0,0,0-2.62-1.23l-4-.58a3.5,3.5,0,0,0-1.89.08,2.94,2.94,0,0,0-1.39,1.71,5.87,5.87,0,0,0-.28,4,3.55,3.55,0,0,0,3,2.47A1,1,0,0,0,43,42a1.23,1.23,0,0,0,.47-.49,3.3,3.3,0,0,1,1-1.14,1.15,1.15,0,0,1,1.42.15c.58.71-.27,1.8,0,2.67s1.52,1,2.48,1c.49.44-.29,1.11-.52,1.73a1.73,1.73,0,0,0,.71,1.8,8.11,8.11,0,0,1,1.55,1.34,6.05,6.05,0,0,1-3.67-.33,1,1,0,0,1-.52-.38,2.23,2.23,0,0,1-.13-.76,2,2,0,0,0-.55-.94c-2.82-3.06-8.1-3.44-10.05-7.12-1-2-1-4.72-2.92-5.89a7.51,7.51,0,0,1-1.54-.9,2.85,2.85,0,0,1-.63-1.2,10.38,10.38,0,0,1,1.59-9.12c1.48-2,3.8-3.76,3.61-6.22-.07-.93-.53-1.87-.27-2.76l4.33-1.61"/><path class="cls-5" d="M54.85,79.76c-.5-3.14,2.6-5.72,3.18-8.85a8.92,8.92,0,0,0-.18-3.49,1.63,1.63,0,0,0-.49-1,2.51,2.51,0,0,0-1.18-.29c-1.57-.25-2.55-1.78-3.32-3.17a5.77,5.77,0,0,1-1.05-3.48C52,58,53.35,56.9,54,55.53a4.62,4.62,0,0,0-.37-4.47,2.66,2.66,0,0,1-.52-1c-.07-.36.15-.8.51-.81s.65.59.68,1.06c.6.25,1.15-.43,1.39-1s.54-1.35,1.19-1.39a2.73,2.73,0,0,0,.4,1.79c.39.49,1.31.55,1.56,0,.15-.35,0-.8.21-1.12.33-.51,1.11-.22,1.66,0a5.17,5.17,0,0,0,4.6-.28,2.54,2.54,0,0,0,1.56,1.84,5.76,5.76,0,0,0,2.47.35c.3,0,.66,0,.81.26a1,1,0,0,1,0,.64,2.74,2.74,0,0,0,1.12,2.29,5.73,5.73,0,0,0,2.44,1,10.25,10.25,0,0,1,2.32.58,2.28,2.28,0,0,1,1.42,1.79,3.23,3.23,0,0,1-.29,1.31L75.4,63.29a13.54,13.54,0,0,1-2.19,4.27c-1.18,1.36-2.88,2.23-3.88,3.73a6.12,6.12,0,0,1-.72,1,4,4,0,0,1-1.23.72,66.15,66.15,0,0,0-11.22,6.29,1.62,1.62,0,0,1-.91.39c-.33,0-.68-.34-.56-.65"/><path class="cls-5" d="M55,79.72c-.32-2.32,1.22-4.3,2.23-6.25a8.83,8.83,0,0,0,1-2.8,7.7,7.7,0,0,0-.38-3.84c-.44-1-1.55-.67-2.38-1.07a6,6,0,0,1-2.29-2.55C52.45,62,51.62,60.6,52,59.16a11.39,11.39,0,0,1,1.75-2.93A4.85,4.85,0,0,0,54.49,53a4.67,4.67,0,0,0-.6-1.77c-.16-.27-.37-.51-.51-.78-.26-.5-.26-.48.24-.63q.45-.35.49.12a2.07,2.07,0,0,1,.07.4.13.13,0,0,0,.09.12c1.58.44,1.39-2.23,2.64-2.43l-.16-.12c0,.8,0,1.88.91,2.22A1,1,0,0,0,59,49.52c.1-.51.07-1.13.76-1.08a3,3,0,0,1,.87.27,5.6,5.6,0,0,0,1.4.39,5.4,5.4,0,0,0,3.33-.66l-.18-.07a3,3,0,0,0,2.65,2.21c.53.09,2.11-.17,2.26.51.06.28,0,.62,0,.93a2.73,2.73,0,0,0,.35.91,4.88,4.88,0,0,0,3.49,1.95,6.79,6.79,0,0,1,2.4.7,2,2,0,0,1,.79,2.67c-.6,1.68-1.24,3.35-1.87,5a12.58,12.58,0,0,1-2.42,4.5c-1,1.07-2.33,1.84-3.27,3-.51.62-.81,1.4-1.53,1.82s-1.55.71-2.31,1.07q-2.65,1.25-5.19,2.73-1.29.75-2.55,1.56l-1.15.76-.57.39-.36.25q-.5.4-1.11-.24c0-.16-.22-.23-.24-.07a.69.69,0,0,0,.66.81c.71.05,1.48-.75,2-1.11q2.39-1.6,4.91-3c1.71-.94,3.47-1.8,5.26-2.59a3.55,3.55,0,0,0,1.72-1.35,9.09,9.09,0,0,1,1.76-2,13.51,13.51,0,0,0,3.29-3.43,33.62,33.62,0,0,0,2.06-5l1-2.8a2.64,2.64,0,0,0,.15-2.13c-.71-1.49-2.56-1.56-4-1.88a4.24,4.24,0,0,1-2.82-1.73,2.61,2.61,0,0,1-.33-1.54.78.78,0,0,0-.19-.67,1,1,0,0,0-.65-.19,12.39,12.39,0,0,1-1.69-.08,2.73,2.73,0,0,1-2.38-2,.13.13,0,0,0-.18-.07,5.12,5.12,0,0,1-3.36.6,13.45,13.45,0,0,0-2.24-.65c-.61,0-.77.43-.85,1s-.14.85-.69.86a1,1,0,0,1-.66-.25,2.35,2.35,0,0,1-.45-1.8.13.13,0,0,0-.16-.12,1.38,1.38,0,0,0-1,.83c-.16.31-.25.65-.43.95a1.92,1.92,0,0,1-.31.42.63.63,0,0,1-.7.21q0-.09,0-.18c-.15-.33-.17-.73-.6-.84a.65.65,0,0,0-.74.42c-.22.5.1,1,.37,1.37a4.66,4.66,0,0,1,.86,2.47c.07,1.63-.82,2.76-1.69,4a4,4,0,0,0-.69,3.74,12.05,12.05,0,0,0,2,3.52,4.6,4.6,0,0,0,1.31,1.18,3.09,3.09,0,0,0,.65.28,10.58,10.58,0,0,1,1.21.21c.88.38.91,2,1,2.77a6.77,6.77,0,0,1-.3,2.57c-.88,2.71-3.38,5-3,8.06,0,.16.26.09.24-.07Z"/><path class="cls-5" d="M85.45,48.22a16.77,16.77,0,0,1-2.24-5.33c-.13-.75-.18-1.5-.28-2.26a30,30,0,0,0-.75-3.48l-1-3.95A17.37,17.37,0,0,0,79,27.55a.79.79,0,0,1,1,.12,4.67,4.67,0,0,1,.63,1c.54.85,1.47,1.38,2.09,2.18A6.92,6.92,0,0,1,83.8,33.1a37.54,37.54,0,0,1,1.47,15"/><path class="cls-5" d="M85.56,48.16a17.22,17.22,0,0,1-2.18-5.08c-.18-.89-.22-1.81-.35-2.71a28.3,28.3,0,0,0-.6-2.79c-.46-1.82-.92-3.65-1.41-5.46a15.32,15.32,0,0,0-1.93-4.63l0,.17c.7-.48,1.13.41,1.4.87a4.45,4.45,0,0,0,.65.85,13.78,13.78,0,0,1,1.73,1.75,9.32,9.32,0,0,1,1.07,2.68q.39,1.35.68,2.72a37.8,37.8,0,0,1,.59,11.58c0,.16.23.16.25,0a37.94,37.94,0,0,0-.91-13C84,33.27,83.6,31.36,82.17,30c-.32-.3-.67-.58-1-.9a9.56,9.56,0,0,1-.83-1.23c-.33-.48-.9-.84-1.45-.46a.13.13,0,0,0,0,.17,16.08,16.08,0,0,1,2,5c.48,1.83,1,3.66,1.41,5.5a23.55,23.55,0,0,1,.57,3,19.13,19.13,0,0,0,.37,2.49,18.6,18.6,0,0,0,2.11,4.7.13.13,0,0,0,.22-.13Z"/></g></svg>