<svg id="Layer_1" data-name="Layer 1" xmlns="http://www.w3.org/2000/svg" viewBox="0 0 100 100"><defs><style>.cls-1{fill:#d98817;}.cls-2{fill:#c2760e;}.cls-3{fill:#feac2a;}.cls-4{fill:#fff;}.cls-5{fill:#a69f97;}</style></defs><title>mapicon</title><path class="cls-1" d="M34.95,16.72h54c5.46-.15,8.79,2.79,10.21,8.49V93.7H1.74V15.36C2.84,10.7,5.81,7.9,11,7.25H25C30.87,7.38,34.46,10.21,34.95,16.72Z"/><polygon class="cls-2" points="91.4 22.13 98.9 29.63 98.9 44.26 91.4 39.71 91.4 22.13"/><path class="cls-3" d="M1.74,93.7h97.4V43.77C98,39.32,95.52,36.71,91,36.89H8.63C4.27,37.52,2.41,40,1.74,43.4Z"/><polygon class="cls-4" points="91.4 36.88 91.4 22.13 27.57 22.13 27.57 33.2 14.78 33.2 14.78 36.88 91.4 36.88"/><polygon class="cls-5" points="27.57 33.2 27.57 22.13 14.78 33.2 27.57 33.2"/></svg>