<svg id="Layer_1" data-name="Layer 1" xmlns="http://www.w3.org/2000/svg" viewBox="0 0 100 100"><defs><style>.cls-1{fill:#fff;}</style></defs><title>settingsicon</title><path class="cls-1" d="M50.24,70.63a13.39,13.39,0,0,1-1.4,0c-.91-.1-1.44-.73-1.61-1.84s-.38-2.25-.55-3.38a.42.42,0,0,0-.36-.4,14.6,14.6,0,0,1-4.44-2,.33.33,0,0,0-.42,0L38.3,65a1.77,1.77,0,0,1-2.46-.31q-.75-.81-1.46-1.64a1.78,1.78,0,0,1,0-2.5q1.13-1.42,2.28-2.82a.43.43,0,0,0,.05-.52q-.59-1.46-1.12-2.95a.47.47,0,0,0-.42-.38q-1.89-.3-3.77-.64a1.75,1.75,0,0,1-1.46-1.73c0-.73,0-1.47,0-2.2a1.84,1.84,0,0,1,1.74-2q1.79-.28,3.58-.6a.47.47,0,0,0,.31-.27,16,16,0,0,1,1.59-3.83.42.42,0,0,0,0-.37q-1-1.45-2-2.88a1.83,1.83,0,0,1,.21-2.68l1.39-1.39a1.82,1.82,0,0,1,2.63-.19c1,.69,1.92,1.36,2.87,2.06a.34.34,0,0,0,.44,0,14.22,14.22,0,0,1,3.73-1.55.44.44,0,0,0,.38-.42c.19-1.23.41-2.45.61-3.68A1.78,1.78,0,0,1,49.09,30h2.27a1.81,1.81,0,0,1,1.87,1.6c.2,1.2.4,2.41.59,3.61a.47.47,0,0,0,.4.44,14.4,14.4,0,0,1,4.49,2,.4.4,0,0,0,.51,0c1-.63,2-1.25,3-1.87a1.81,1.81,0,0,1,2.68.37q.67.74,1.33,1.49a1.81,1.81,0,0,1,0,2.58c-.76.93-1.5,1.87-2.26,2.8a.4.4,0,0,0-.07.47q.57,1.44,1.08,2.89a.42.42,0,0,0,.38.34q1.89.3,3.77.64a1.74,1.74,0,0,1,1.44,1.68q0,1.25,0,2.5a1.81,1.81,0,0,1-1.72,1.76c-1.18.19-2.37.39-3.54.6a.46.46,0,0,0-.31.27A16.6,16.6,0,0,1,63.38,58a.43.43,0,0,0,.06.37c.69,1,1.4,2,2.1,3a1.83,1.83,0,0,1-.24,2.75L64,65.46a1.78,1.78,0,0,1-2.54.25q-1.54-1.08-3.06-2.19a.39.39,0,0,0-.5,0A13.9,13.9,0,0,1,54.24,65a.51.51,0,0,0-.43.49c-.2,1.26-.4,2.52-.64,3.77a1.72,1.72,0,0,1-1.69,1.38H50.24ZM42.67,50.32a7.63,7.63,0,1,0,7.61-7.64A7.62,7.62,0,0,0,42.67,50.32Z"/></svg>