<svg id="Layer_1" data-name="Layer 1" xmlns="http://www.w3.org/2000/svg" viewBox="0 0 100 100"><defs><style>.cls-1{fill:#fff;}</style></defs><title>usersicon</title><g id="SFj0np.tif"><path class="cls-1" d="M75.89,61.2a26.6,26.6,0,0,1-10.64,2.37c0-.2,0-.38,0-.55A18.79,18.79,0,0,0,65,58.71a11.31,11.31,0,0,0-2.39-4.83,11.73,11.73,0,0,0-5.48-3.66,9.51,9.51,0,0,0,2.84-6.39l.28,0c2.24,0,4.48,0,6.72,0a9,9,0,0,1,5.88,2.55,9.58,9.58,0,0,1,3,5.81c0,.13.06.26.09.39Z"/><path class="cls-1" d="M63.42,64.44c0,1.38,0,2.76,0,4.14a.55.55,0,0,1-.38.59,25.38,25.38,0,0,1-8.09,2,37.38,37.38,0,0,1-9-.21,50.23,50.23,0,0,1-7.85-1.79.35.35,0,0,1-.3-.4c0-2.59,0-5.19,0-7.78a9.23,9.23,0,0,1,1.65-5.23,9.54,9.54,0,0,1,5.33-3.85,10.76,10.76,0,0,1,3.08-.38c2.2,0,4.4,0,6.59.05a8.86,8.86,0,0,1,5.2,1.94,9.47,9.47,0,0,1,3.56,5.65,12.12,12.12,0,0,1,.2,2.2C63.45,62.42,63.42,63.43,63.42,64.44Z"/><path class="cls-1" d="M41.28,43.84a9.45,9.45,0,0,0,2.81,6.34c-.73.34-1.45.63-2.13,1a11,11,0,0,0-3.88,3.44A11.58,11.58,0,0,0,36,61.77c0,.57,0,1.14,0,1.79-1.27-.15-2.49-.27-3.7-.43a53.71,53.71,0,0,1-7.14-1.61.65.65,0,0,1-.57-.75c0-2.44,0-4.89,0-7.34a9.41,9.41,0,0,1,2.3-6.24,9.2,9.2,0,0,1,7-3.36c2.31-.05,4.62,0,6.92,0C40.94,43.81,41.08,43.83,41.28,43.84Z"/><path class="cls-1" d="M58.11,43.49A7.5,7.5,0,1,1,50.62,36,7.5,7.5,0,0,1,58.11,43.49Z"/><path class="cls-1" d="M29.9,36.19a7.61,7.61,0,0,1,7.63-8,7.52,7.52,0,0,1,7.26,6.1,9.79,9.79,0,0,1,.11,1.55.59.59,0,0,1-.18.42,9.44,9.44,0,0,0-3.28,5.51.66.66,0,0,1-.28.4,7.24,7.24,0,0,1-7.48,0A7.13,7.13,0,0,1,29.9,36.19Z"/><path class="cls-1" d="M63.11,28.23a7.5,7.5,0,1,1-2.87,14.46.55.55,0,0,1-.41-.49,8.94,8.94,0,0,0-2.49-5.09,12.87,12.87,0,0,0-1.46-1.24.65.65,0,0,1-.32-.64A7.52,7.52,0,0,1,63.11,28.23Z"/></g></svg>